<?xml version="1.0" encoding="utf-8"?>
<!-- Generator: Adobe Illustrator 18.1.1, SVG Export Plug-In . SVG Version: 6.00 Build 0)  -->
<svg version="1.1" id="Capa_1" xmlns="http://www.w3.org/2000/svg" xmlns:xlink="http://www.w3.org/1999/xlink" x="0px" y="0px"
	 viewBox="0 0 457.7 150.6" enable-background="new 0 0 457.7 150.6" xml:space="preserve">
<g>
	<polygon points="99.9,109.5 98,109.5 98,119.2 96.7,119.2 96.7,109.5 94.8,109.5 94.8,108.4 95.9,108.4 99.9,108.4 99.9,109.5 	"/>
	<path d="M103.5,111.3c0.6,0,1.1,0.1,1.4,0.2c0.3,0.1,0.6,0.3,0.8,0.5c0.2,0.2,0.3,0.4,0.3,0.6s0.1,0.4,0.1,0.5v0.4v0v0.3
		c0,0.2,0,0.4-0.1,0.6c-0.1,0.2-0.2,0.4-0.5,0.7c-0.1,0.1-0.2,0.2-0.4,0.3c-0.1,0.1-0.3,0.1-0.4,0.1c-0.1,0-0.3,0.1-0.4,0.1h-1.1
		c-0.3,0-0.5,0.1-0.7,0.3c-0.2,0.2-0.3,0.4-0.3,0.7v0.7c0,0.2,0,0.4,0.1,0.6c0,0.1,0.1,0.1,0.1,0.2c0,0,0.1,0.1,0.2,0.1
		c0.1,0,0.2,0.1,0.3,0.1c0.1,0,0.3,0,0.5,0c0.3,0,0.5,0,0.6-0.1c0.1-0.1,0.3-0.1,0.3-0.1c0.1-0.1,0.2-0.2,0.3-0.4
		c0-0.1,0.1-0.3,0.1-0.4h1.3v0.4c0,0.3-0.1,0.5-0.2,0.7c-0.1,0.2-0.3,0.4-0.5,0.6c-0.2,0.1-0.4,0.2-0.7,0.3
		c-0.3,0.1-0.7,0.1-1.1,0.1c-0.3,0-0.6,0-0.9-0.1s-0.5-0.1-0.6-0.2c-0.2-0.1-0.3-0.2-0.5-0.3c-0.1-0.1-0.2-0.2-0.3-0.3
		c-0.2-0.3-0.3-0.6-0.3-0.9v-0.3v-0.7v-3v0v-0.4c0-0.1,0-0.3,0.1-0.5c0-0.2,0.1-0.4,0.3-0.6c0.2-0.2,0.4-0.4,0.8-0.5
		C102.4,111.4,102.9,111.3,103.5,111.3L103.5,111.3z M104.8,113.5v-0.1c0-0.1,0-0.2,0-0.3c0-0.1-0.1-0.2-0.2-0.3
		c-0.1-0.1-0.2-0.2-0.4-0.2c-0.2-0.1-0.4-0.1-0.6-0.1c-0.3,0-0.5,0-0.7,0.1c-0.2,0.1-0.3,0.1-0.4,0.2c-0.1,0.1-0.2,0.2-0.2,0.3
		c0,0.1,0,0.2,0,0.3v0.2v0v0.1v1.3c0-0.1,0.1-0.2,0.1-0.2c0.1-0.1,0.1-0.1,0.2-0.1c0.1,0,0.2,0,0.3-0.1c0.1,0,0.2,0,0.2,0h0.9
		c0.2,0,0.4-0.1,0.6-0.2c0.2-0.2,0.3-0.4,0.3-0.6V113.5L104.8,113.5L104.8,113.5z"/>
	<path d="M111,113.5v-0.1c0-0.1,0-0.2-0.1-0.3c0-0.1-0.1-0.2-0.2-0.3c-0.1-0.1-0.2-0.2-0.4-0.2c-0.2-0.1-0.4-0.1-0.6-0.1
		c-0.5,0-0.8,0.1-1,0.3s-0.3,0.5-0.3,0.7v3.6c0,0.4,0.1,0.7,0.3,0.8c0.2,0.2,0.5,0.3,1,0.3c0.5,0,0.8-0.1,1-0.3
		c0.2-0.2,0.3-0.5,0.3-0.8h1.3v0.4c0,0.2,0,0.4-0.1,0.6c-0.1,0.2-0.2,0.4-0.4,0.6c-0.2,0.2-0.4,0.3-0.8,0.4
		c-0.3,0.1-0.8,0.2-1.3,0.2c-0.5,0-1-0.1-1.3-0.2c-0.3-0.1-0.6-0.3-0.8-0.4c-0.2-0.2-0.3-0.4-0.4-0.6c-0.1-0.2-0.1-0.4-0.1-0.6v-0.7
		v-3.4v-0.4c0-0.2,0-0.5,0.1-0.7c0.1-0.2,0.2-0.4,0.5-0.6c0.2-0.2,0.5-0.3,0.8-0.4c0.3-0.1,0.7-0.1,1.1-0.1c0.9,0,1.5,0.2,1.9,0.5
		c0.4,0.3,0.6,0.8,0.6,1.3v0.4H111L111,113.5z"/>
	<path d="M118.8,119.2h-1.3v-5.7v-0.1c0-0.1,0-0.2,0-0.3c0-0.1-0.1-0.2-0.2-0.3c-0.1-0.1-0.2-0.2-0.4-0.2c-0.2-0.1-0.4-0.1-0.6-0.1
		c-0.3,0-0.5,0-0.7,0.1c-0.2,0.1-0.3,0.1-0.4,0.2c-0.1,0.1-0.2,0.2-0.2,0.3c0,0.1,0,0.2,0,0.3v0.2v5.7h-1.3v-5.8v-0.3
		c0-0.1,0-0.3,0.1-0.5c0-0.2,0.1-0.4,0.3-0.6c0.2-0.2,0.4-0.4,0.8-0.5c0.3-0.1,0.8-0.2,1.4-0.2s1.1,0.1,1.4,0.2
		c0.3,0.1,0.6,0.3,0.8,0.5c0.2,0.2,0.3,0.4,0.3,0.6c0,0.2,0.1,0.4,0.1,0.5v0.1V119.2L118.8,119.2z"/>
	<path d="M125.4,117.3v0.2c0,0.1,0,0.3-0.1,0.5c0,0.2-0.1,0.4-0.3,0.6c-0.2,0.2-0.4,0.4-0.8,0.5s-0.8,0.2-1.4,0.2
		c-0.6,0-1.1-0.1-1.4-0.2c-0.3-0.1-0.6-0.3-0.8-0.5c-0.2-0.2-0.3-0.4-0.3-0.6c0-0.2-0.1-0.4-0.1-0.5v-0.2v-4.3c0-0.1,0-0.3,0.1-0.5
		c0-0.2,0.1-0.4,0.3-0.6c0.2-0.2,0.4-0.4,0.8-0.5c0.3-0.1,0.8-0.2,1.4-0.2c0.6,0,1.1,0.1,1.4,0.2c0.3,0.1,0.6,0.3,0.8,0.5
		c0.2,0.2,0.3,0.4,0.3,0.6c0,0.2,0.1,0.4,0.1,0.5V117.3L125.4,117.3z M124.1,117.2v-3.6v-0.2c0-0.1,0-0.2,0-0.3
		c0-0.1-0.1-0.2-0.2-0.3c-0.1-0.1-0.2-0.2-0.4-0.2c-0.2-0.1-0.4-0.1-0.7-0.1c-0.3,0-0.5,0-0.6,0.1c-0.2,0.1-0.3,0.1-0.4,0.2
		c-0.1,0.1-0.1,0.2-0.2,0.3c0,0.1,0,0.2,0,0.3v0.1v3.6v0.1c0,0.1,0,0.2,0,0.3c0,0.1,0.1,0.2,0.2,0.3c0.1,0.1,0.2,0.2,0.4,0.2
		c0.2,0.1,0.4,0.1,0.6,0.1c0.3,0,0.5,0,0.7-0.1c0.2-0.1,0.3-0.1,0.4-0.2c0.1-0.1,0.2-0.2,0.2-0.3c0-0.1,0-0.2,0-0.3V117.2
		L124.1,117.2z"/>
	<polygon points="127.2,119.2 127.2,108.4 128.5,108.4 128.5,119.2 127.2,119.2 	"/>
	<path d="M135,117.3v0.2c0,0.1,0,0.3-0.1,0.5c0,0.2-0.1,0.4-0.3,0.6c-0.2,0.2-0.4,0.4-0.8,0.5c-0.3,0.1-0.8,0.2-1.4,0.2
		c-0.6,0-1.1-0.1-1.4-0.2c-0.3-0.1-0.6-0.3-0.8-0.5c-0.2-0.2-0.3-0.4-0.3-0.6c0-0.2-0.1-0.4-0.1-0.5v-0.2v-4.3c0-0.1,0-0.3,0.1-0.5
		c0-0.2,0.1-0.4,0.3-0.6c0.2-0.2,0.4-0.4,0.8-0.5c0.3-0.1,0.8-0.2,1.4-0.2c0.6,0,1.1,0.1,1.4,0.2c0.3,0.1,0.6,0.3,0.8,0.5
		c0.2,0.2,0.3,0.4,0.3,0.6c0,0.2,0.1,0.4,0.1,0.5V117.3L135,117.3z M133.8,117.2v-3.6v-0.2c0-0.1,0-0.2,0-0.3c0-0.1-0.1-0.2-0.2-0.3
		c-0.1-0.1-0.2-0.2-0.4-0.2c-0.2-0.1-0.4-0.1-0.7-0.1c-0.3,0-0.5,0-0.6,0.1c-0.2,0.1-0.3,0.1-0.4,0.2c-0.1,0.1-0.1,0.2-0.2,0.3
		c0,0.1,0,0.2,0,0.3v0.1v3.6v0.1c0,0.1,0,0.2,0,0.3c0,0.1,0.1,0.2,0.2,0.3c0.1,0.1,0.2,0.2,0.4,0.2c0.2,0.1,0.4,0.1,0.6,0.1
		c0.3,0,0.5,0,0.7-0.1c0.2-0.1,0.3-0.1,0.4-0.2c0.1-0.1,0.2-0.2,0.2-0.3c0-0.1,0-0.2,0-0.3V117.2L133.8,117.2z"/>
	<path d="M139.2,111.3c0.6,0,1.1,0.1,1.4,0.2c0.3,0.1,0.6,0.3,0.8,0.5c0.2,0.2,0.3,0.4,0.3,0.6s0.1,0.4,0.1,0.5v0.3v0.1v0.3
		c0,0.2,0,0.4-0.1,0.6c-0.1,0.2-0.2,0.4-0.4,0.7c-0.1,0.1-0.2,0.2-0.4,0.3c-0.1,0.1-0.3,0.1-0.4,0.1c-0.1,0-0.3,0.1-0.4,0.1h-1.1
		c-0.3,0-0.5,0.1-0.7,0.3c-0.2,0.2-0.3,0.4-0.3,0.7v0.3c0,0.1,0,0.2,0.1,0.3c0,0.1,0.1,0.1,0.2,0.2c0.1,0,0.1,0.1,0.2,0.1
		c0.1,0,0.1,0,0.1,0.1c0,0,0.1,0,0.3,0.1c0.2,0.1,0.3,0.1,0.6,0.2c0.2,0.1,0.4,0.2,0.7,0.2c0.2,0.1,0.4,0.1,0.6,0.2
		c0.4,0.1,0.6,0.3,0.8,0.7c0.2,0.3,0.3,0.7,0.3,1v0.7c0,0.2,0,0.4-0.1,0.6c-0.1,0.2-0.2,0.4-0.4,0.6c-0.2,0.2-0.4,0.3-0.8,0.4
		c-0.3,0.1-0.8,0.2-1.3,0.2c-0.5,0-1-0.1-1.3-0.2s-0.6-0.3-0.8-0.4c-0.2-0.2-0.3-0.4-0.4-0.6c-0.1-0.2-0.1-0.4-0.1-0.6v-0.4v-3.1
		v-0.2v0v-0.8v-2.6v-0.1v-0.3c0-0.1,0-0.3,0.1-0.5c0-0.2,0.1-0.4,0.3-0.6c0.2-0.2,0.4-0.4,0.8-0.5
		C138.1,111.4,138.6,111.3,139.2,111.3L139.2,111.3z M138.3,118.7c-0.1,0-0.1-0.1-0.2-0.1c-0.1,0-0.1-0.1-0.1-0.2v1.8
		c0,0.4,0.1,0.6,0.3,0.8c0.2,0.2,0.5,0.3,1,0.3c0.5,0,0.8-0.1,1-0.3c0.2-0.2,0.3-0.5,0.3-0.8c0-0.2,0-0.3-0.1-0.5
		c-0.1-0.1-0.1-0.2-0.2-0.3c-0.1-0.1-0.2-0.2-0.4-0.2c-0.2-0.1-0.3-0.1-0.5-0.2c-0.1,0-0.3-0.1-0.5-0.2
		C138.6,118.8,138.4,118.7,138.3,118.7L138.3,118.7z M140.5,113.4c0-0.1,0-0.2,0-0.3c0-0.1-0.1-0.2-0.2-0.3
		c-0.1-0.1-0.2-0.2-0.4-0.2c-0.2-0.1-0.4-0.1-0.7-0.1c-0.3,0-0.5,0-0.7,0.1c-0.2,0.1-0.3,0.1-0.4,0.2c-0.1,0.1-0.2,0.2-0.2,0.3
		c0,0.1,0,0.2,0,0.3v0v0.1v0.1v1.3c0-0.1,0.1-0.2,0.1-0.2c0.1-0.1,0.2-0.1,0.2-0.1c0.1,0,0.2,0,0.3-0.1c0.1,0,0.2,0,0.2,0h0.9
		c0.2,0,0.4-0.1,0.6-0.2c0.2-0.2,0.2-0.4,0.2-0.6v-0.1V113.4L140.5,113.4z"/>
	<path d="M146.3,108.4c0,0-0.1,0.1-0.3,0.3c-0.1,0.1-0.3,0.3-0.4,0.4c-0.2,0.2-0.3,0.3-0.5,0.5c-0.2,0.2-0.3,0.3-0.5,0.5
		c-0.2,0.1-0.3,0.3-0.4,0.4c-0.1,0.1-0.2,0.2-0.2,0.2c0,0-0.1,0.1-0.2,0.1c-0.1,0-0.2,0.1-0.3,0.1c-0.1,0-0.2,0-0.4,0.1
		c0.3-0.4,0.5-0.8,0.7-1.1c0.1-0.1,0.2-0.3,0.3-0.4c0.1-0.1,0.2-0.3,0.2-0.4c0.1-0.1,0.1-0.2,0.2-0.3c0.1-0.1,0.1-0.2,0.1-0.2
		L146.3,108.4L146.3,108.4z M144.1,111.4h1.3v7.8h-1.3V111.4L144.1,111.4z"/>
	<path d="M150.3,111.3c0.9,0,1.5,0.2,1.9,0.5c0.4,0.3,0.6,0.8,0.6,1.3v0.7v3.3v0.4c0,0.2,0,0.4-0.1,0.6c-0.1,0.2-0.2,0.4-0.4,0.6
		c-0.2,0.2-0.4,0.3-0.8,0.4c-0.3,0.1-0.8,0.2-1.3,0.2c-0.5,0-1-0.1-1.3-0.2c-0.3-0.1-0.6-0.3-0.8-0.4c-0.2-0.2-0.3-0.4-0.4-0.6
		c-0.1-0.2-0.1-0.4-0.1-0.6v-0.7c0-0.4,0.1-0.7,0.3-1c0.2-0.3,0.5-0.5,0.8-0.7c0.2-0.1,0.4-0.1,0.6-0.2c0.2-0.1,0.4-0.2,0.7-0.2
		c0.2-0.1,0.4-0.1,0.6-0.2c0.2-0.1,0.3-0.1,0.3-0.1c0,0,0.1,0,0.2-0.1c0.1,0,0.1-0.1,0.2-0.2c0.1-0.1,0.1-0.1,0.2-0.2
		c0-0.1,0.1-0.2,0.1-0.3v-0.3c0-0.1,0-0.2-0.1-0.3c0-0.1-0.1-0.2-0.2-0.3c-0.1-0.1-0.2-0.2-0.4-0.2c-0.2-0.1-0.4-0.1-0.6-0.1
		c-0.5,0-0.8,0.1-1,0.3c-0.2,0.2-0.3,0.5-0.3,0.7h-1.3v-0.4c0-0.2,0-0.5,0.1-0.7c0.1-0.2,0.2-0.4,0.5-0.6c0.2-0.2,0.5-0.3,0.8-0.4
		C149.5,111.4,149.8,111.3,150.3,111.3L150.3,111.3z M151.6,115.3c0,0.1-0.1,0.2-0.1,0.2c-0.1,0-0.2,0.1-0.2,0.1
		c-0.1,0-0.3,0.1-0.5,0.2c-0.2,0.1-0.3,0.1-0.5,0.2c-0.2,0.1-0.3,0.1-0.5,0.2c-0.1,0-0.2,0.1-0.3,0.2c-0.1,0.1-0.2,0.2-0.2,0.3
		c-0.1,0.1-0.1,0.3-0.1,0.5c0,0.4,0.1,0.7,0.3,0.8c0.2,0.2,0.5,0.3,1,0.3c0.5,0,0.8-0.1,1-0.3c0.2-0.2,0.3-0.5,0.3-0.8V115.3
		L151.6,115.3z"/>
	<path d="M158.1,113.5c0-0.3-0.1-0.5-0.3-0.7c-0.2-0.2-0.5-0.3-1-0.3c-0.2,0-0.5,0-0.6,0.1c-0.2,0.1-0.3,0.1-0.4,0.2
		c-0.1,0.1-0.2,0.2-0.2,0.3c0,0.1-0.1,0.2-0.1,0.3v0.3c0,0.1,0,0.2,0.1,0.3c0,0.1,0.1,0.2,0.2,0.2c0.1,0.1,0.1,0.1,0.2,0.2
		c0.1,0,0.1,0.1,0.2,0.1c0,0,0.1,0,0.3,0.1c0.2,0.1,0.3,0.1,0.6,0.2c0.2,0.1,0.4,0.2,0.7,0.2c0.2,0.1,0.4,0.1,0.6,0.2
		c0.4,0.1,0.6,0.3,0.8,0.7c0.2,0.3,0.3,0.7,0.3,1v0.7c0,0.2,0,0.4-0.1,0.6c-0.1,0.2-0.2,0.4-0.4,0.6c-0.2,0.2-0.4,0.3-0.8,0.4
		c-0.3,0.1-0.8,0.2-1.3,0.2c-0.5,0-1-0.1-1.3-0.2c-0.3-0.1-0.6-0.3-0.8-0.4c-0.2-0.2-0.3-0.4-0.4-0.6c-0.1-0.2-0.1-0.4-0.1-0.6v-0.4
		h1.3c0,0.4,0.1,0.6,0.3,0.8c0.2,0.2,0.5,0.3,1,0.3c0.5,0,0.8-0.1,1-0.3c0.2-0.2,0.3-0.5,0.3-0.8c0-0.2,0-0.3-0.1-0.5
		c-0.1-0.1-0.1-0.2-0.2-0.3c-0.1-0.1-0.2-0.2-0.4-0.2c-0.3-0.1-0.6-0.2-0.8-0.3c-0.2-0.1-0.4-0.2-0.7-0.2c-0.2-0.1-0.4-0.1-0.5-0.2
		c-0.1,0-0.2-0.1-0.3-0.2c-0.1-0.1-0.3-0.2-0.4-0.3c-0.1-0.1-0.2-0.3-0.3-0.5c-0.1-0.2-0.1-0.4-0.1-0.6v-0.7c0-0.5,0.2-0.9,0.6-1.3
		c0.4-0.3,1-0.5,1.9-0.5c0.4,0,0.8,0,1.1,0.1c0.3,0.1,0.6,0.2,0.8,0.4c0.2,0.2,0.4,0.4,0.5,0.6c0.1,0.2,0.1,0.5,0.1,0.7v0.4H158.1
		L158.1,113.5z"/>
	<path d="M168.9,117.6c0,0.5-0.2,0.9-0.6,1.3c-0.4,0.3-1,0.5-1.9,0.5c-0.4,0-0.8,0-1.2-0.1c-0.3-0.1-0.6-0.2-0.8-0.4
		c-0.2-0.2-0.4-0.4-0.5-0.6c-0.1-0.2-0.1-0.5-0.1-0.7v-0.4h0v-3h0v-0.3c0-0.4,0.1-0.7,0.3-1c0.2-0.3,0.5-0.5,0.8-0.7
		c0.2-0.1,0.4-0.1,0.6-0.2c0.2-0.1,0.4-0.2,0.7-0.2c0.2-0.1,0.4-0.1,0.6-0.2c0.2-0.1,0.3-0.1,0.3-0.1c0,0,0.1,0,0.2-0.1
		c0.1,0,0.1-0.1,0.2-0.2c0.1-0.1,0.1-0.1,0.2-0.2c0-0.1,0.1-0.2,0.1-0.3v-0.3v-1.9h1.3V117.6L168.9,117.6z M166.3,118.3
		c0.2,0,0.5,0,0.6-0.1c0.2-0.1,0.3-0.1,0.4-0.2c0.1-0.1,0.2-0.2,0.2-0.3s0.1-0.2,0.1-0.3v-3.2v-0.1v-1.8c0,0.1-0.1,0.2-0.1,0.2
		c-0.1,0-0.2,0.1-0.2,0.1c-0.1,0-0.3,0.1-0.5,0.2c-0.2,0.1-0.3,0.1-0.5,0.2c-0.2,0.1-0.3,0.1-0.5,0.2c-0.1,0-0.2,0.1-0.3,0.2
		c-0.1,0.1-0.2,0.2-0.2,0.3c-0.1,0.1-0.1,0.3-0.1,0.5v0.1v3.1c0,0.1,0,0.3,0.1,0.4c0,0.1,0.1,0.2,0.2,0.3c0.1,0.1,0.2,0.2,0.4,0.2
		C165.9,118.2,166.1,118.3,166.3,118.3L166.3,118.3z"/>
	<path d="M172.9,111.3c0.6,0,1.1,0.1,1.4,0.2c0.3,0.1,0.6,0.3,0.8,0.5c0.2,0.2,0.3,0.4,0.3,0.6c0,0.2,0.1,0.4,0.1,0.5v0.4v0v0.3
		c0,0.2,0,0.4-0.1,0.6c-0.1,0.2-0.2,0.4-0.5,0.7c-0.1,0.1-0.2,0.2-0.4,0.3c-0.1,0.1-0.3,0.1-0.4,0.1c-0.1,0-0.3,0.1-0.4,0.1h-1.1
		c-0.3,0-0.5,0.1-0.7,0.3c-0.2,0.2-0.3,0.4-0.3,0.7v0.7c0,0.2,0,0.4,0.1,0.6c0,0.1,0.1,0.1,0.1,0.2c0,0,0.1,0.1,0.2,0.1
		c0.1,0,0.2,0.1,0.3,0.1c0.1,0,0.3,0,0.5,0c0.3,0,0.5,0,0.6-0.1c0.1-0.1,0.3-0.1,0.3-0.1c0.1-0.1,0.2-0.2,0.3-0.4
		c0-0.1,0.1-0.3,0.1-0.4h1.3v0.4c0,0.3-0.1,0.5-0.2,0.7c-0.1,0.2-0.3,0.4-0.5,0.6c-0.2,0.1-0.4,0.2-0.7,0.3
		c-0.3,0.1-0.7,0.1-1.1,0.1c-0.3,0-0.6,0-0.9-0.1c-0.2-0.1-0.5-0.1-0.6-0.2s-0.3-0.2-0.5-0.3s-0.2-0.2-0.3-0.3
		c-0.2-0.3-0.3-0.6-0.3-0.9v-0.3v-0.7v-3v0v-0.4c0-0.1,0-0.3,0.1-0.5c0-0.2,0.1-0.4,0.3-0.6c0.2-0.2,0.4-0.4,0.8-0.5
		C171.8,111.4,172.3,111.3,172.9,111.3L172.9,111.3z M174.2,113.5v-0.1c0-0.1,0-0.2,0-0.3c0-0.1-0.1-0.2-0.2-0.3
		c-0.1-0.1-0.2-0.2-0.4-0.2c-0.2-0.1-0.4-0.1-0.6-0.1c-0.3,0-0.5,0-0.7,0.1c-0.2,0.1-0.3,0.1-0.4,0.2c-0.1,0.1-0.2,0.2-0.2,0.3
		c0,0.1,0,0.2,0,0.3v0.2v0v0.1v1.3c0-0.1,0.1-0.2,0.1-0.2c0.1-0.1,0.1-0.1,0.2-0.1c0.1,0,0.2,0,0.3-0.1c0.1,0,0.2,0,0.2,0h0.9
		c0.2,0,0.4-0.1,0.6-0.2c0.2-0.2,0.3-0.4,0.3-0.6V113.5L174.2,113.5L174.2,113.5z"/>
	<polygon points="180,119.2 180,108.4 181.3,108.4 181.3,119.2 180,119.2 	"/>
	<path d="M185.2,111.3c0.9,0,1.5,0.2,1.9,0.5c0.4,0.3,0.6,0.8,0.6,1.3v0.7v3.3v0.4c0,0.2,0,0.4-0.1,0.6c-0.1,0.2-0.2,0.4-0.4,0.6
		c-0.2,0.2-0.4,0.3-0.8,0.4c-0.3,0.1-0.8,0.2-1.3,0.2c-0.5,0-1-0.1-1.3-0.2c-0.3-0.1-0.6-0.3-0.8-0.4c-0.2-0.2-0.3-0.4-0.4-0.6
		c-0.1-0.2-0.1-0.4-0.1-0.6v-0.7c0-0.4,0.1-0.7,0.3-1c0.2-0.3,0.5-0.5,0.8-0.7c0.2-0.1,0.4-0.1,0.6-0.2c0.2-0.1,0.4-0.2,0.7-0.2
		c0.2-0.1,0.4-0.1,0.6-0.2c0.2-0.1,0.3-0.1,0.3-0.1c0,0,0.1,0,0.2-0.1c0.1,0,0.1-0.1,0.2-0.2c0.1-0.1,0.1-0.1,0.2-0.2
		c0-0.1,0.1-0.2,0.1-0.3v-0.3c0-0.1,0-0.2-0.1-0.3c0-0.1-0.1-0.2-0.2-0.3c-0.1-0.1-0.2-0.2-0.4-0.2c-0.2-0.1-0.4-0.1-0.6-0.1
		c-0.5,0-0.8,0.1-1,0.3c-0.2,0.2-0.3,0.5-0.3,0.7h-1.3v-0.4c0-0.2,0-0.5,0.1-0.7c0.1-0.2,0.2-0.4,0.5-0.6c0.2-0.2,0.5-0.3,0.8-0.4
		C184.4,111.4,184.8,111.3,185.2,111.3L185.2,111.3z M186.5,115.3c0,0.1-0.1,0.2-0.1,0.2c-0.1,0-0.2,0.1-0.2,0.1
		c-0.1,0-0.3,0.1-0.5,0.2c-0.2,0.1-0.3,0.1-0.5,0.2c-0.2,0.1-0.3,0.1-0.5,0.2c-0.1,0-0.2,0.1-0.3,0.2c-0.1,0.1-0.2,0.2-0.2,0.3
		c-0.1,0.1-0.1,0.3-0.1,0.5c0,0.4,0.1,0.7,0.3,0.8c0.2,0.2,0.5,0.3,1,0.3c0.5,0,0.8-0.1,1-0.3c0.2-0.2,0.3-0.5,0.3-0.8V115.3
		L186.5,115.3z"/>
	<polygon points="192.2,119.2 192.2,108.4 193.5,108.4 193.5,119.2 192.2,119.2 	"/>
	<path d="M200,119.2h-1.3v-5.7v-0.1c0-0.1,0-0.2,0-0.3c0-0.1-0.1-0.2-0.2-0.3c-0.1-0.1-0.2-0.2-0.4-0.2c-0.2-0.1-0.4-0.1-0.6-0.1
		c-0.3,0-0.5,0-0.7,0.1c-0.2,0.1-0.3,0.1-0.4,0.2c-0.1,0.1-0.2,0.2-0.2,0.3c0,0.1,0,0.2,0,0.3v0.2v5.7h-1.3v-5.8v-0.3
		c0-0.1,0-0.3,0.1-0.5c0-0.2,0.1-0.4,0.3-0.6c0.2-0.2,0.4-0.4,0.8-0.5c0.3-0.1,0.8-0.2,1.4-0.2c0.6,0,1.1,0.1,1.4,0.2
		c0.3,0.1,0.6,0.3,0.8,0.5c0.2,0.2,0.3,0.4,0.3,0.6s0.1,0.4,0.1,0.5v0.1V119.2L200,119.2z"/>
	<path d="M203.7,111.4h1.3v1.1h-1.3v6.7h-1.3v-6.7h-1v-1.1h1v-1.1v-0.3c0-0.1,0-0.3,0.1-0.5c0-0.2,0.1-0.4,0.3-0.6
		c0.2-0.2,0.4-0.4,0.8-0.5c0.3-0.1,0.8-0.2,1.4-0.2c0.2,0,0.3,0,0.4,0c0.1,0,0.3,0,0.4,0l-0.3,1.1c-0.1,0-0.2,0-0.3,0
		c-0.1,0-0.2,0-0.3,0c-0.3,0-0.5,0-0.7,0.1c-0.2,0.1-0.3,0.1-0.4,0.2c-0.1,0.1-0.1,0.2-0.2,0.3c0,0.1,0,0.2,0,0.3v0.1V111.4
		L203.7,111.4z"/>
	<path d="M211.6,117.3v0.2c0,0.1,0,0.3-0.1,0.5c0,0.2-0.1,0.4-0.3,0.6c-0.2,0.2-0.4,0.4-0.8,0.5s-0.8,0.2-1.4,0.2
		c-0.6,0-1.1-0.1-1.4-0.2c-0.3-0.1-0.6-0.3-0.8-0.5c-0.2-0.2-0.3-0.4-0.3-0.6c0-0.2-0.1-0.4-0.1-0.5v-0.2v-4.3c0-0.1,0-0.3,0.1-0.5
		c0-0.2,0.1-0.4,0.3-0.6c0.2-0.2,0.4-0.4,0.8-0.5c0.3-0.1,0.8-0.2,1.4-0.2c0.6,0,1.1,0.1,1.4,0.2c0.3,0.1,0.6,0.3,0.8,0.5
		c0.2,0.2,0.3,0.4,0.3,0.6c0,0.2,0.1,0.4,0.1,0.5V117.3L211.6,117.3z M210.4,117.2v-3.6v-0.2c0-0.1,0-0.2,0-0.3
		c0-0.1-0.1-0.2-0.2-0.3c-0.1-0.1-0.2-0.2-0.4-0.2c-0.2-0.1-0.4-0.1-0.7-0.1c-0.3,0-0.5,0-0.6,0.1c-0.2,0.1-0.3,0.1-0.4,0.2
		c-0.1,0.1-0.1,0.2-0.2,0.3c0,0.1,0,0.2,0,0.3v0.1v3.6v0.1c0,0.1,0,0.2,0,0.3s0.1,0.2,0.2,0.3c0.1,0.1,0.2,0.2,0.4,0.2
		c0.2,0.1,0.4,0.1,0.6,0.1c0.3,0,0.5,0,0.7-0.1c0.2-0.1,0.3-0.1,0.4-0.2c0.1-0.1,0.2-0.2,0.2-0.3c0-0.1,0-0.2,0-0.3V117.2
		L210.4,117.2z"/>
	<path d="M215.6,111.3c0.2,0,0.3,0,0.4,0c0.1,0,0.3,0,0.4,0l-0.3,1.1c-0.1,0-0.2,0-0.3,0c-0.1,0-0.2,0-0.3,0c-0.3,0-0.5,0-0.6,0.1
		c-0.2,0.1-0.3,0.2-0.4,0.2c-0.1,0.1-0.1,0.2-0.2,0.3c0,0.1,0,0.2,0,0.3v0.1v5.7h-1.3v-5.7v-0.3c0-0.1,0-0.3,0.1-0.5
		c0-0.2,0.1-0.4,0.3-0.6c0.2-0.2,0.4-0.4,0.8-0.5C214.6,111.4,215,111.3,215.6,111.3L215.6,111.3z"/>
	<path d="M226.3,119.2H225v-5.7v-0.1c0-0.1,0-0.2,0-0.3c0-0.1-0.1-0.2-0.2-0.3c-0.1-0.1-0.2-0.2-0.4-0.2c-0.2-0.1-0.4-0.1-0.7-0.1
		c-0.3,0-0.5,0-0.7,0.1c-0.2,0.1-0.3,0.1-0.4,0.2c-0.1,0.1-0.2,0.2-0.2,0.3c0,0.1,0,0.2,0,0.3v0.2v5.7h-1.3v-5.7v-0.1
		c0-0.1,0-0.2,0-0.3c0-0.1-0.1-0.2-0.2-0.3c-0.1-0.1-0.2-0.2-0.4-0.2c-0.2-0.1-0.4-0.1-0.7-0.1c-0.3,0-0.5,0-0.7,0.1
		c-0.2,0.1-0.3,0.1-0.4,0.2c-0.1,0.1-0.2,0.2-0.2,0.3c0,0.1,0,0.2,0,0.3v0.2v5.7h-1.3v-5.8v-0.3c0-0.1,0-0.3,0.1-0.5
		c0-0.2,0.1-0.4,0.3-0.6c0.2-0.2,0.4-0.4,0.8-0.5c0.3-0.1,0.8-0.2,1.4-0.2c0.5,0,0.9,0,1.2,0.1c0.3,0.1,0.5,0.2,0.7,0.4
		c0.2-0.1,0.4-0.3,0.7-0.4c0.3-0.1,0.7-0.1,1.2-0.1c0.6,0,1.1,0.1,1.4,0.2c0.3,0.1,0.6,0.3,0.8,0.5c0.2,0.2,0.3,0.4,0.3,0.6
		c0,0.2,0.1,0.4,0.1,0.5v0.1V119.2L226.3,119.2z"/>
	<path d="M230.3,111.3c0.9,0,1.5,0.2,1.9,0.5c0.4,0.3,0.6,0.8,0.6,1.3v0.7v3.3v0.4c0,0.2,0,0.4-0.1,0.6c-0.1,0.2-0.2,0.4-0.4,0.6
		c-0.2,0.2-0.4,0.3-0.8,0.4c-0.3,0.1-0.8,0.2-1.3,0.2c-0.5,0-1-0.1-1.3-0.2c-0.3-0.1-0.6-0.3-0.8-0.4c-0.2-0.2-0.3-0.4-0.4-0.6
		c-0.1-0.2-0.1-0.4-0.1-0.6v-0.7c0-0.4,0.1-0.7,0.3-1c0.2-0.3,0.5-0.5,0.8-0.7c0.2-0.1,0.4-0.1,0.6-0.2c0.2-0.1,0.4-0.2,0.7-0.2
		c0.2-0.1,0.4-0.1,0.6-0.2c0.2-0.1,0.3-0.1,0.3-0.1c0,0,0.1,0,0.2-0.1c0.1,0,0.1-0.1,0.2-0.2c0.1-0.1,0.1-0.1,0.2-0.2
		c0-0.1,0.1-0.2,0.1-0.3v-0.3c0-0.1,0-0.2-0.1-0.3c0-0.1-0.1-0.2-0.2-0.3c-0.1-0.1-0.2-0.2-0.4-0.2c-0.2-0.1-0.4-0.1-0.6-0.1
		c-0.5,0-0.8,0.1-1,0.3c-0.2,0.2-0.3,0.5-0.3,0.7h-1.3v-0.4c0-0.2,0-0.5,0.1-0.7c0.1-0.2,0.2-0.4,0.5-0.6c0.2-0.2,0.5-0.3,0.8-0.4
		C229.4,111.4,229.8,111.3,230.3,111.3L230.3,111.3z M231.5,115.3c0,0.1-0.1,0.2-0.1,0.2c-0.1,0-0.2,0.1-0.2,0.1
		c-0.1,0-0.3,0.1-0.5,0.2c-0.2,0.1-0.3,0.1-0.5,0.2c-0.2,0.1-0.3,0.1-0.5,0.2c-0.1,0-0.2,0.1-0.3,0.2c-0.1,0.1-0.2,0.2-0.2,0.3
		c-0.1,0.1-0.1,0.3-0.1,0.5c0,0.4,0.1,0.7,0.3,0.8c0.2,0.2,0.5,0.3,1,0.3c0.5,0,0.8-0.1,1-0.3c0.2-0.2,0.3-0.5,0.3-0.8V115.3
		L231.5,115.3z"/>
	<path d="M238.1,113.5v-0.1c0-0.1,0-0.2-0.1-0.3c0-0.1-0.1-0.2-0.2-0.3c-0.1-0.1-0.2-0.2-0.4-0.2c-0.2-0.1-0.4-0.1-0.6-0.1
		c-0.5,0-0.8,0.1-1,0.3s-0.3,0.5-0.3,0.7v3.6c0,0.4,0.1,0.7,0.3,0.8c0.2,0.2,0.5,0.3,1,0.3c0.5,0,0.8-0.1,1-0.3
		c0.2-0.2,0.3-0.5,0.3-0.8h1.3v0.4c0,0.2,0,0.4-0.1,0.6c-0.1,0.2-0.2,0.4-0.4,0.6c-0.2,0.2-0.4,0.3-0.8,0.4
		c-0.3,0.1-0.8,0.2-1.3,0.2c-0.5,0-1-0.1-1.3-0.2c-0.3-0.1-0.6-0.3-0.8-0.4c-0.2-0.2-0.3-0.4-0.4-0.6c-0.1-0.2-0.1-0.4-0.1-0.6v-0.7
		v-3.4v-0.4c0-0.2,0-0.5,0.1-0.7c0.1-0.2,0.2-0.4,0.5-0.6c0.2-0.2,0.5-0.3,0.8-0.4c0.3-0.1,0.7-0.1,1.1-0.1c0.9,0,1.5,0.2,1.9,0.5
		c0.4,0.3,0.6,0.8,0.6,1.3v0.4H238.1L238.1,113.5z"/>
	<path d="M241,119.2v-7.8h1.3v7.8H241L241,119.2z M241,108.4h1.3v1.5H241V108.4L241,108.4z"/>
	<path d="M248.8,117.3v0.2c0,0.1,0,0.3-0.1,0.5c0,0.2-0.1,0.4-0.3,0.6c-0.2,0.2-0.4,0.4-0.8,0.5s-0.8,0.2-1.4,0.2
		c-0.6,0-1.1-0.1-1.4-0.2c-0.3-0.1-0.6-0.3-0.8-0.5c-0.2-0.2-0.3-0.4-0.3-0.6c0-0.2-0.1-0.4-0.1-0.5v-0.1v-4.3c0-0.1,0-0.3,0.1-0.5
		c0-0.2,0.1-0.4,0.3-0.6c0.2-0.2,0.4-0.4,0.8-0.5c0.3-0.1,0.8-0.2,1.4-0.2c0.6,0,1.1,0.1,1.4,0.2c0.3,0.1,0.6,0.3,0.8,0.5
		c0.2,0.2,0.3,0.4,0.3,0.6c0,0.2,0.1,0.4,0.1,0.5V117.3L248.8,117.3z M247.5,117.2v-3.7v-0.2c0-0.1,0-0.2,0-0.3
		c0-0.1-0.1-0.2-0.2-0.3c-0.1-0.1-0.2-0.2-0.4-0.2c-0.2-0.1-0.4-0.1-0.7-0.1c-0.3,0-0.5,0-0.6,0.1c-0.2,0.1-0.3,0.1-0.4,0.2
		c-0.1,0.1-0.1,0.2-0.2,0.3c0,0.1,0,0.2,0,0.3v0.1v3.7v0.1c0,0.1,0,0.2,0,0.3c0,0.1,0.1,0.2,0.2,0.3c0.1,0.1,0.2,0.2,0.4,0.2
		c0.2,0.1,0.4,0.1,0.6,0.1c0.3,0,0.5,0,0.7-0.1c0.2-0.1,0.3-0.1,0.4-0.2c0.1-0.1,0.2-0.2,0.2-0.3c0-0.1,0-0.2,0-0.3V117.2
		L247.5,117.2z M248.7,108.4c-0.1,0.1-0.3,0.3-0.5,0.5c-0.2,0.2-0.5,0.5-0.7,0.7c-0.3,0.3-0.5,0.5-0.7,0.7c-0.2,0.2-0.3,0.3-0.4,0.4
		c0,0-0.1,0.1-0.2,0.1c-0.1,0-0.2,0.1-0.3,0.1c-0.1,0-0.2,0-0.4,0.1c0.3-0.4,0.5-0.8,0.7-1.2c0.1-0.1,0.2-0.3,0.3-0.4
		c0.1-0.1,0.2-0.3,0.2-0.4c0.1-0.1,0.1-0.2,0.2-0.3c0.1-0.1,0.1-0.2,0.1-0.2H248.7L248.7,108.4z"/>
	<path d="M255.3,119.2H254v-5.7v-0.1c0-0.1,0-0.2,0-0.3c0-0.1-0.1-0.2-0.2-0.3c-0.1-0.1-0.2-0.2-0.4-0.2c-0.2-0.1-0.4-0.1-0.6-0.1
		c-0.3,0-0.5,0-0.7,0.1c-0.2,0.1-0.3,0.1-0.4,0.2c-0.1,0.1-0.2,0.2-0.2,0.3c0,0.1,0,0.2,0,0.3v0.2v5.7h-1.3v-5.8v-0.3
		c0-0.1,0-0.3,0.1-0.5c0-0.2,0.1-0.4,0.3-0.6s0.4-0.4,0.8-0.5c0.3-0.1,0.8-0.2,1.4-0.2c0.6,0,1.1,0.1,1.4,0.2
		c0.3,0.1,0.6,0.3,0.8,0.5c0.2,0.2,0.3,0.4,0.3,0.6c0,0.2,0.1,0.4,0.1,0.5v0.1V119.2L255.3,119.2z"/>
	<path d="M34.2,84.4l0,2.2c0,2.4-0.6,4.6-1.9,6.6c-1.3,2-3.2,3.4-5.6,4.2c-1.2,0.4-2.6,0.8-4.1,1.3c-1.5,0.5-3,1-4.5,1.5
		c-1.4,0.5-2.7,0.9-3.8,1.3c-1.1,0.4-1.7,0.6-2,0.7c-0.3,0.1-0.6,0.3-1,0.5c-0.4,0.2-0.8,0.6-1.2,1c-0.4,0.4-0.8,1-1.1,1.5
		c-0.3,0.6-0.5,1.2-0.5,2l0,1.7l0,10.3H0l0-56.9c0.1-3.3,1.5-6,4.2-8.2c2.7-2.2,7-3.3,12.9-3.3c3,0,5.6,0.3,7.8,0.9
		c2.1,0.6,3.9,1.4,5.3,2.5c1.4,1.1,2.4,2.3,3.1,3.7c0.6,1.4,1,2.9,1,4.5l0,2.3L34.2,84.4L34.2,84.4z M25.8,64.4
		c-0.1-0.8-0.3-1.6-0.6-2.4c-0.3-0.8-0.8-1.4-1.4-2c-0.6-0.6-1.5-1-2.6-1.3c-1.1-0.3-2.5-0.5-4.1-0.5c-1.7,0-3.1,0.2-4.2,0.5
		c-1.1,0.4-2,0.8-2.6,1.4c-0.6,0.6-1.1,1.2-1.4,1.9c-0.3,0.7-0.4,1.4-0.4,2.1l0,20.4v0.5l0,11.9c0.1-0.7,0.5-1.2,1-1.5
		c0.5-0.3,1-0.5,1.6-0.7c1.1-0.3,2.2-0.7,3.3-1.1c1.1-0.4,2.2-0.8,3.2-1.1c1.2-0.4,2.3-0.8,3.4-1.2c0.9-0.3,1.7-0.8,2.4-1.3
		c0.6-0.5,1.1-1.2,1.6-2c0.5-0.8,0.7-1.8,0.7-3l0-0.5L25.8,64.4L25.8,64.4z"/>
	<path d="M93.5,89.4l0,1.5c0,0.8-0.1,1.8-0.4,3.1c-0.3,1.3-1,2.6-2.1,3.8c-1.1,1.3-2.9,2.4-5.1,3.3c-2.3,0.9-5.4,1.4-9.5,1.4
		c-4,0-7.2-0.5-9.5-1.4c-2.3-0.9-4-2-5.1-3.3c-1.1-1.3-1.8-2.6-2.1-3.9c-0.3-1.3-0.4-2.3-0.4-3l0-1.1l0-27.4c0-0.7,0.1-1.7,0.4-3
		c0.3-1.3,1-2.6,2.1-3.9c1.1-1.3,2.9-2.4,5.1-3.3c2.3-0.9,5.4-1.4,9.5-1.4c4,0,7.2,0.5,9.5,1.4c2.3,0.9,4,2,5.1,3.3
		c1.1,1.3,1.8,2.6,2.1,3.8c0.3,1.3,0.4,2.3,0.4,3.1L93.5,89.4L93.5,89.4z M84.9,88.5l0-23.4l0-1.1c0-0.6-0.1-1.2-0.3-1.9
		c-0.2-0.7-0.6-1.3-1.3-1.9c-0.6-0.6-1.5-1.1-2.7-1.5c-1.1-0.4-2.7-0.6-4.6-0.6c-1.8,0-3.3,0.2-4.4,0.6c-1.1,0.4-2,0.9-2.6,1.5
		c-0.6,0.6-1,1.3-1.2,2c-0.2,0.7-0.3,1.3-0.3,1.8v1l0,23.4v1c0,0.5,0.1,1.1,0.3,1.8c0.2,0.7,0.6,1.4,1.2,2c0.6,0.6,1.5,1.1,2.6,1.5
		c1.1,0.4,2.6,0.6,4.4,0.6c1.9,0,3.5-0.2,4.6-0.6c1.1-0.4,2-0.9,2.7-1.5c0.6-0.6,1.1-1.2,1.3-1.9c0.2-0.7,0.3-1.3,0.3-1.9L84.9,88.5
		L84.9,88.5z"/>
	<path d="M205.3,101.8h-8.6l0-36.9v-0.9c0-0.6-0.1-1.2-0.3-1.9c-0.2-0.7-0.6-1.3-1.2-1.9c-0.6-0.6-1.5-1.1-2.6-1.5
		c-1.1-0.4-2.6-0.6-4.4-0.6c-1.9,0-3.4,0.2-4.6,0.6c-1.2,0.4-2.1,0.9-2.7,1.5c-0.6,0.6-1.1,1.2-1.3,1.9c-0.2,0.7-0.3,1.3-0.3,1.8
		l0,1.1l0,36.9H171l0-37.6l0-1.7c0-0.8,0.1-1.8,0.4-3.1c0.3-1.3,1-2.6,2.2-3.8c1.2-1.3,2.9-2.4,5.2-3.3c2.3-0.9,5.4-1.4,9.5-1.4
		c4,0,7.2,0.5,9.5,1.4c2.3,0.9,4,2,5.1,3.3c1.1,1.3,1.8,2.6,2.1,3.9c0.3,1.3,0.4,2.3,0.4,3l0,1L205.3,101.8L205.3,101.8z"/>
	<path d="M234.1,64.9c0-1.9-0.6-3.4-1.8-4.8c-1.2-1.3-3.4-2-6.8-2c-1.7,0-3.1,0.2-4.2,0.5c-1.1,0.4-2,0.8-2.7,1.4
		c-0.7,0.6-1.1,1.2-1.4,1.9c-0.3,0.7-0.4,1.3-0.4,2l0,1.8c0,0.8,0.2,1.4,0.5,2c0.3,0.6,0.7,1.1,1.1,1.5c0.4,0.4,0.8,0.8,1.3,1
		c0.4,0.2,0.8,0.4,1.1,0.5c0.3,0.1,0.9,0.3,2,0.7c1.1,0.4,2.3,0.8,3.8,1.3c1.4,0.5,2.9,1,4.5,1.5c1.5,0.5,2.9,1,4.1,1.3
		c2.4,0.8,4.3,2.2,5.6,4.2c1.3,2,2,4.2,2,6.6l0,4.5c0,1.2-0.2,2.4-0.7,3.8c-0.4,1.4-1.3,2.6-2.6,3.8c-1.3,1.2-3,2.1-5.2,2.9
		c-2.2,0.8-5.1,1.2-8.7,1.2s-6.4-0.4-8.7-1.2c-2.2-0.8-4-1.7-5.2-2.9c-1.3-1.2-2.1-2.4-2.6-3.8c-0.4-1.4-0.7-2.6-0.7-3.8l0-2.8h8.5
		c0,2.3,0.6,4.1,1.8,5.3c1.2,1.2,3.5,1.9,6.8,1.9c3.3,0,5.5-0.6,6.7-1.8c1.2-1.2,1.8-3,1.8-5.4c0-1.2-0.2-2.2-0.7-3
		c-0.5-0.8-1-1.5-1.6-2c-0.7-0.6-1.5-1-2.4-1.3c-2-0.7-3.9-1.3-5.6-1.9c-1.5-0.5-3-1-4.5-1.5c-1.4-0.5-2.5-0.8-3.2-1
		c-0.7-0.3-1.4-0.6-2.3-1.2c-0.9-0.5-1.7-1.2-2.5-2c-0.8-0.8-1.5-1.8-2-3c-0.5-1.2-0.8-2.5-0.8-4.1l0-4.6c0-3.3,1.4-6.1,4.1-8.3
		c2.8-2.2,7.1-3.3,13-3.3c3,0,5.6,0.3,7.8,0.9c2.1,0.6,3.9,1.4,5.3,2.5c1.4,1.1,2.4,2.3,3.1,3.7c0.6,1.4,1,2.9,1,4.5l0,2.3H234.1
		L234.1,64.9z"/>
	<polygon points="246.9,101.8 246.9,50.8 255.3,50.8 255.3,101.8 246.9,101.8 	"/>
	<path fill="#D02422" d="M168,89.4l0,1.5c0,0.8-0.1,1.8-0.4,3.1c-0.3,1.3-1,2.6-2.1,3.8c-1.1,1.3-2.9,2.4-5.1,3.3
		c-2.3,0.9-5.4,1.4-9.5,1.4s-7.2-0.5-9.5-1.4c-4.7-1.9-6.5-4.6-8.2-9l3.9-9.9c1.8,4.4,3.9,10.5,9,12.4c1.1,0.4,2.6,0.6,4.4,0.6
		c1.9,0,3.5-0.2,4.6-0.6c1.7-0.6,3.4-1.6,3.9-3.4c0.2-0.7,0.3-1.3,0.3-1.9c0-8.5,0-17,0-25.6c0-0.6-0.1-1.2-0.3-1.9
		c-0.2-0.7-0.6-1.3-1.3-1.9c-0.6-0.6-1.5-1.1-2.7-1.5c-1.1-0.4-2.7-0.6-4.6-0.6c-1.8,0-3.3,0.2-4.4,0.6c-3.4,1.3-3.7,4-4.9,7
		c-3.6,9.6-7.6,19.3-11.3,29.1c-0.5,1.4-1.3,2.6-2.6,3.8c-1.3,1.2-3,2.1-5.2,2.9c-2.2,0.8-5.1,1.2-8.7,1.2c-3.6,0-6.4-0.4-8.7-1.2
		c-2.2-0.8-4-1.7-5.2-2.9c-1.3-1.2-2.1-2.4-2.6-3.8c-0.4-1.4-0.7-2.6-0.7-3.8l0-4.5l0-21.6l0-2.3c0-1.6,0.3-3.1,1-4.5
		c0.6-1.4,1.7-2.6,3.1-3.7c1.4-1.1,3.2-1.9,5.3-2.5c2.1-0.6,4.7-0.9,7.8-0.9c5.8,0,10.1,1.1,12.9,3.2l-3.2,8.3
		c-0.8-3-5.3-4.3-9.6-4.3c-4.8,0-8.6,1.7-8.6,6.7l0,23.3c0,2.4,0.6,4.2,1.8,5.4c1.2,1.2,3.5,1.8,6.7,1.8c5.6,0,6.4-0.8,8.3-5.3
		c3.7-9,8.5-21.1,11.5-29.1c0.7-1.9,1.6-3.9,2.9-5.5c1.1-1.3,2.9-2.4,5.1-3.3c2.3-0.9,5.4-1.4,9.5-1.4s7.2,0.5,9.5,1.4
		c2.3,0.9,4,2,5.1,3.3c1.1,1.3,1.8,2.6,2.1,3.8c0.3,1.3,0.4,2.3,0.4,3.1L168,89.4L168,89.4z"/>
	<path fill-rule="evenodd" clip-rule="evenodd" d="M54.4,51c1.1,0,2.1,0,3,0c0.4,0,0.8,0,1.2,0l-3.4,7.2c-0.3,0-0.7,0-1,0
		c-1.8,0-3.3,0.2-4.4,0.7c-1.1,0.4-2,1-2.6,1.6c-0.6,0.6-1,1.2-1.2,1.9c-0.2,0.7-0.3,1.3-0.3,1.9v0.9l0,36.7h-8.6l0-37l0-2.2
		c0-0.7,0.1-1.7,0.4-3c0.3-1.3,1-2.6,2.1-3.9c1.1-1.3,2.9-2.4,5.1-3.3C47.2,51.5,50.4,51,54.4,51L54.4,51z"/>
	<path fill-rule="evenodd" clip-rule="evenodd" d="M363.5,41c-13.3,7.9-28.1,24.7-34,39.2c-10,24.6-8.4,50.2,12.2,60.7l31.5,9.7
		c-19.6-7.2-23.8-33.7-16.2-51.6c3.9-9.3,12.5-20,19.9-26.7c-1.7-9-7-22.8-12.6-30.2C364,41.7,363.8,41.4,363.5,41L363.5,41z"/>
	<path fill-rule="evenodd" clip-rule="evenodd" fill="#D02422" d="M397.7,25.2c-16.3-21.1-39.4-32.6-58.8-20l-24.1,22.4
		c16.1-13.4,41-3.7,52.8,11.8c6.2,8.2,11.2,21,13.2,30.9c7.9,2.7,23,5.4,32.2,4.2c0.4-0.1,0.8-0.1,1.2-0.2
		C414.2,59.8,406.9,37.1,397.7,25.2L397.7,25.2z"/>
	<path fill-rule="evenodd" clip-rule="evenodd" fill="#D02422" d="M409.6,112.1c27.1-3.3,49.3-17.6,48.1-41.1l-7.4-32.1
		c3.7,21.2-18.1,37.6-36.7,39.9c-9.3,1.2-24.3-1.2-33.1-4.1c-6.8,6-16,17.3-19.6,25.8c-0.2,0.5-0.4,1-0.6,1.5
		C372.9,109.1,394.9,113.9,409.6,112.1L409.6,112.1z"/>
	<path fill-rule="evenodd" clip-rule="evenodd" d="M437.7,62.6c-5.3-3.6-13.2-6.5-21.6-6.4c-3.1-12.7-6.2-21.1-13.5-31.8
		c18.1-3.4,33.9,0.3,39.9,9.3C449.2,43.7,445.7,54.7,437.7,62.6L437.7,62.6z"/>
	<path fill-rule="evenodd" clip-rule="evenodd" fill="#D02422" d="M341.6,26.8c-0.4,6.3,1.4,14.6,5.4,21.8
		c-8.4,8-15.8,17.3-20.7,27.9l-0.4-0.4c-11.9-13.9-16.4-29.3-11.7-39C319.4,26.2,330.7,23.8,341.6,26.8L341.6,26.8z"/>
	<path fill-rule="evenodd" clip-rule="evenodd" fill="#D02422" d="M359,127.9c5.7-2.8,12.1-8,16.2-15.2c11.1,3.3,22.8,4.9,34.4,4
		c-6.1,17.4-17.2,29.2-28,29.9C369.6,147.4,361.8,138.8,359,127.9L359,127.9z"/>
	<path fill-rule="evenodd" clip-rule="evenodd" d="M280.5,25.5L280.5,25.5c-0.7,0-1.3,0.4-1.3,0.9v99.9c0,0.5,0.6,0.9,1.3,0.9l0,0
		c0.7,0,1.3-0.4,1.3-0.9V26.4C281.9,25.9,281.3,25.5,280.5,25.5L280.5,25.5z"/>
</g>
</svg>
