<?xml version="1.0" standalone="no"?>
<!DOCTYPE svg PUBLIC "-//W3C//DTD SVG 20010904//EN"
 "http://www.w3.org/TR/2001/REC-SVG-20010904/DTD/svg10.dtd">
<svg version="1.0" xmlns="http://www.w3.org/2000/svg"
 width="836.000000pt" height="836.000000pt" viewBox="0 0 836.000000 836.000000"
 preserveAspectRatio="xMidYMid meet">
<metadata>
Created by potrace 1.11, written by Peter Selinger 2001-2013
</metadata>
<g transform="translate(0.000000,836.000000) scale(0.100000,-0.100000)"
fill="#000000" stroke="none">
<path d="M4138 7924 c-2 -2 -19 -6 -37 -9 -91 -16 -194 -91 -247 -180 -51 -88
-63 -218 -27 -317 34 -96 125 -188 220 -224 26 -10 50 -21 53 -25 3 -4 5 -456
5 -1005 l-1 -998 -54 -2 c-90 -3 -263 -14 -290 -18 -14 -3 -52 -7 -85 -11 -52
-5 -155 -21 -260 -41 -16 -3 -70 -14 -120 -25 -49 -11 -98 -22 -108 -24 -10
-2 -27 -7 -37 -10 -10 -3 -27 -7 -37 -9 -34 -7 -248 -75 -343 -110 -281 -102
-565 -244 -825 -413 -55 -36 -101 -69 -103 -74 -2 -5 -8 -9 -12 -9 -9 0 -181
-125 -214 -155 -6 -6 -36 -30 -66 -54 -30 -25 -64 -54 -76 -65 -11 -12 -43
-41 -72 -65 -28 -24 -48 -49 -45 -54 3 -6 2 -7 -4 -4 -11 7 -106 -86 -98 -96
3 -4 2 -5 -2 -2 -9 7 -189 -185 -231 -247 -9 -13 -19 -25 -22 -28 -18 -14
-120 -150 -120 -159 0 -6 -4 -11 -8 -11 -13 0 -202 -290 -274 -420 -177 -319
-305 -643 -398 -1010 -12 -47 -24 -98 -27 -115 -2 -16 -8 -46 -13 -65 -5 -19
-12 -55 -15 -80 -4 -25 -11 -66 -15 -92 -5 -26 -12 -76 -15 -110 -4 -35 -8
-69 -10 -76 -9 -27 -19 -225 -20 -377 0 -148 2 -162 21 -190 12 -16 35 -35 52
-41 20 -8 167 -12 457 -12 235 0 428 -2 429 -4 1 -1 13 -32 26 -68 25 -71 84
-170 100 -170 6 0 9 -4 6 -8 -3 -5 13 -26 34 -47 22 -22 40 -36 40 -32 0 3 11
-5 25 -19 58 -58 220 -113 339 -115 90 -1 134 7 216 37 165 62 299 201 351
363 l21 66 1977 -2 c1087 -1 1979 -2 1982 -3 4 0 9 -15 13 -32 12 -59 74 -172
127 -231 77 -86 199 -161 294 -181 67 -14 82 -16 145 -17 192 -2 347 79 487
254 22 27 71 131 78 164 3 18 11 36 17 39 5 4 197 6 426 6 245 -1 430 3 448 9
38 12 75 53 83 93 10 46 1 354 -14 466 -2 19 -7 62 -10 95 -3 33 -8 72 -10 85
-3 14 -10 54 -15 90 -26 181 -121 557 -171 675 -6 17 -13 36 -15 42 -4 22 -56
155 -84 218 -15 33 -30 70 -34 83 -4 12 -11 22 -15 22 -4 0 -8 6 -8 13 0 42
-295 565 -342 607 -3 3 -10 12 -16 21 -5 9 -19 29 -30 45 -26 39 -201 260
-223 282 -9 10 -30 33 -46 52 -82 101 -305 316 -446 431 -130 106 -238 189
-245 189 -3 0 -14 8 -25 18 -29 26 -264 173 -370 231 -232 126 -465 227 -695
302 -149 49 -409 117 -510 133 -16 3 -70 12 -120 20 -157 26 -336 44 -505 50
l-65 2 -3 1007 c-2 909 -1 1007 14 1007 8 0 41 12 71 28 116 56 196 169 209
294 23 223 -133 407 -357 422 -32 2 -60 2 -61 0z"/>
</g>
</svg>
